<svg xmlns="http://www.w3.org/2000/svg" viewBox="0 0 1280 1280" height="1280.000000pt" width="1280.000000pt"><g transform="matrix(-1 0 0 -1 1280 1280)"><g transform="matrix(0 1 -1 0 1280 -0)"><metadata>
Created by potrace 1.15, written by Peter Selinger 2001-2017
</metadata><g transform="translate(0.000000,1280.000000) scale(0.100000,-0.100000)" fill="#f3cb38" stroke="none">
<path d="M1297 12438 c98 -110 5456 -5964 5490 -5999 l44 -45 -2737 -2990 c-1505 -1644 -2755 -3008 -2777 -3031 l-41 -43 2356 0 2357 0 2775 3031 2776 3031 -61 67 c-34 36 -1283 1401 -2777 3033 l-2717 2968 -2354 0 -2354 0 20 -22z"/>
</g></g></g></svg>