<svg xmlns="http://www.w3.org/2000/svg" version="1.0" width="88" height="82" preserveAspectRatio="xMidYMid meet" style=""><rect id="backgroundrect" width="100%" height="100%" x="0" y="0" fill="none" stroke="none" style="" class=""/>
<metadata>
Created by potrace 1.15, written by Peter Selinger 2001-2017
</metadata>

<g class="currentLayer" style=""><title>Layer 1</title>






































<g class=""><path d="M22.450205521240587,15.997919986737806 c-8.873094084499915,5.06981520529448 -12.933662563847333,9.217845827808146 -17.595796743838815,17.05301478144507 c-7.669962683211791,13.519507214118613 -5.5644827309575735,33.33787574390613 4.361351329669449,40.55852164235584 c13.08405398900835,9.678738119198554 30.830242158008183,-1.997199929358432 26.619282253499748,-17.66753783663228 c-2.406262802576248,-8.910584300214541 -9.775442635466007,-12.290461103744194 -20.002059546415065,-9.371476591604948 l-4.361351329669449,1.2290461103744197 l0.902348550966093,-6.452492079465703 c1.0527399761271088,-8.603322772620936 7.068396982567729,-17.66753783663228 14.587968240618505,-21.96919922294275 c5.71487415611859,-3.3798768035296534 7.9707455335338215,-7.374276662246517 4.210959904508434,-7.374276662246517 c-1.0527399761271088,0 -4.962917030313512,1.8435691655616293 -8.722702659338898,3.994399858716864 z" id="svg_2" class="" fill="#f3cb38"/><path d="M70.57546157276555,15.383396931550598 c-15.79109964190663,7.988799717433728 -25.566542277372637,25.041814498878797 -23.46106232511842,41.01941393374625 c2.105479952254217,16.438491726257862 18.046971019321862,25.963599081659613 29.02554505607599,17.66753783663228 c6.617222707084682,-5.06981520529448 8.722702659338898,-10.600522701979369 6.617222707084682,-17.66753783663228 c-2.707045652898279,-9.217845827808146 -9.925834060627023,-12.751353395134602 -20.002059546415065,-9.985999646792159 c-3.7597856290253877,1.0754153465776175 -4.210959904508434,0.9217845827808147 -4.210959904508434,-2.4580922207488394 c0,-1.997199929358432 1.804697101932186,-7.374276662246517 4.060568479347419,-11.829568812353788 c2.8574370780592955,-6.145230551872097 5.865265581279605,-9.525107355401753 11.279356887076164,-12.904984158931406 c11.42974831223718,-7.220645898449715 9.023485509660931,-9.985999646792159 -3.308611353542341,-3.840769094920062 z" id="svg_3" class="" fill="#f3cb38"/></g></g></svg>